<svg width="317" height="318" viewBox="0 0 317 318" fill="none" xmlns="http://www.w3.org/2000/svg">
<g clip-path="url(#clip0_3345_13345)">
<path d="M0 0.353516H317V317.354H0V0.353516Z" fill="#FAFAF9"/>
<path d="M156.514 36.9586C157.882 36.8222 158.079 37.111 159.207 37.1821C160.539 37.2658 162.275 36.4521 163.418 37.3418C163.586 37.4728 163.63 37.5221 163.77 37.6597C164.577 36.8886 165.23 37.1333 166.324 37.1555C167.242 37.1739 168.061 37.3333 168.96 37.4653L169.292 37.8418C169.779 37.5461 170.273 37.4071 170.855 37.5652C171.287 37.682 171.431 37.9523 171.655 38.3132L171.985 37.9424C173.797 37.9359 177.607 38.6631 179.49 39.0599C180.404 39.2522 181.797 39.9185 182.665 39.8298C182.741 39.8221 182.818 39.8178 182.894 39.8116L182.941 39.9842C184.044 40.0951 188.261 41.0447 188.948 41.7416C189.021 41.8154 189.075 41.9046 189.14 41.986C190.202 41.7225 193.771 43.2894 195.037 43.6725C195.641 43.8553 195.989 44.4026 196.36 44.8808C196.758 44.5607 196.778 44.4395 197.303 44.4958C197.323 44.5553 197.342 44.6153 197.363 44.6743C197.456 44.9285 197.407 44.8347 197.589 45.0396C197.853 44.9836 198.221 44.8248 198.462 44.9631C198.741 45.1236 198.753 45.213 198.931 45.4513C199.752 46.5562 203.909 47.5753 204.042 47.7627C204.098 47.8397 204.041 47.9519 204.039 48.0466L204.188 48.2519C204.556 48.2597 204.85 48.2088 205.208 48.1328L205.527 48.3261L205.586 48.7034C206.948 49.3796 208.246 50.2133 209.605 50.8699L210.054 51.19C211.446 52.0012 213.413 52.9867 214.554 54.1162C215.232 54.5581 216.636 55.1505 217.043 55.7931C217.13 56.1255 217.188 56.1075 217.442 56.3149L217.27 56.2836L217.49 56.4651L217.668 56.2077L218.057 56.1573C218.029 56.2405 217.998 56.3223 217.973 56.4067C217.947 56.5007 217.928 56.5968 217.907 56.6918C218.177 56.8271 218.043 56.8183 218.266 56.7718C218.665 56.689 218.868 56.6493 219.255 56.8313C219.544 57.1348 219.764 57.4185 219.996 57.7691C220.312 58.2446 220.584 58.4732 221.069 58.7745C221.395 58.911 221.515 59.086 221.744 59.3459C222.631 60.355 225.025 61.865 226.234 62.8955C228.053 64.4476 229.666 66.228 231.483 67.7734C231.461 68.1201 231.416 68.4095 231.319 68.7431C231.655 68.9072 231.78 68.8021 232.069 68.8855C232.422 68.9869 233.069 69.68 233.345 69.9594C233.356 70.2389 233.351 70.4186 233.249 70.6808C233.863 70.6691 233.924 70.676 234.354 71.0892C236.468 73.1158 238.125 75.5885 239.874 77.9228C240.985 79.4042 242.228 80.8689 243.144 82.4792C243.528 83.1557 243.76 83.845 243.98 84.5874L243.742 85.1433C244.197 84.9906 244.279 84.9053 244.745 85.0673C244.941 85.3619 245.141 85.6544 245.333 85.9516C245.348 86.0307 245.369 86.109 245.379 86.1889C245.424 86.5102 245.379 86.629 245.252 86.9144C245.506 87.3233 245.564 87.0831 245.855 87.3179C246.234 87.6238 246.376 88.9083 246.664 89.3705L247.108 88.9715C247.528 89.1628 247.772 89.4323 247.923 89.8874C247.936 89.927 247.943 89.9685 247.952 90.009L247.789 90.1067C247.718 90.0875 247.647 90.0568 247.573 90.0494C247.475 90.0395 247.376 90.0533 247.277 90.0551C247.336 90.1381 247.396 90.2197 247.452 90.3039C247.745 90.7359 247.847 91.2474 247.975 91.7451C248.237 91.8686 248.378 91.8793 248.661 91.901C248.927 92.2393 248.853 92.7241 248.857 93.1347C249.312 94.0178 250.136 94.5538 250.576 95.4756C250.464 95.7927 250.529 95.6307 250.376 95.9607L250.492 96.1252C250.726 96.4625 250.966 96.7228 250.961 97.1511L250.498 97.381C250.75 97.926 251.498 98.2338 251.647 98.7606C251.729 99.0534 251.831 99.298 251.965 99.5709L251.918 99.7659C252.227 101.576 254.077 103.172 253.569 104.971C254.021 105.058 254.188 105.056 254.543 105.365C255.046 106.68 253.996 106.973 255.382 108.119C255.682 109.066 255.244 110.118 255.541 111.012C255.775 111.71 256.801 111.529 256.32 112.446C256.286 112.511 256.247 112.573 256.211 112.636L256.267 112.999C256.459 113.106 256.626 113.186 256.832 113.268C256.707 113.58 256.635 113.663 256.406 113.893C256.532 114.737 257.154 115.336 257.405 116.13C257.708 117.089 256.936 117.197 257.68 118.153C257.932 120.737 258.596 123.344 258.525 125.949C258.646 126.081 259.07 126.457 259.113 126.598C259.271 127.113 259.213 128.409 259.188 128.983C259.132 130.231 258.801 131.169 259.199 132.387C259.324 132.77 259.519 133.134 259.257 133.466C259.056 133.722 259.11 133.606 259.048 133.878C259.632 134.661 259.443 135.207 259.31 136.133C259.685 136.74 259.538 140.553 259.596 141.57L259.522 141.653C259.5 142.07 259.474 142.469 259.398 142.88C259.14 144.282 259.5 145.693 258.952 147.069C258.951 147.122 258.946 147.175 258.945 147.228C258.94 147.46 258.934 147.369 258.994 147.602C258.963 147.686 258.932 147.768 258.903 147.853C258.682 148.509 258.703 149.338 258.658 150.029C258.699 150.069 258.739 150.109 258.776 150.151C258.97 150.358 258.903 150.284 259.087 150.568L258.918 150.737L258.508 150.734C258.305 151.121 258.349 151.479 258.361 151.901C258.414 152.265 258.434 152.074 258.35 152.309C258.275 152.525 258.298 152.661 258.302 152.887C258.343 154.644 257.75 156.821 257.089 158.434C257.185 158.943 257.513 159.835 257.216 160.285C257.107 160.449 256.974 160.496 256.796 160.544C256.625 160.891 256.736 161.239 256.796 161.603C256.556 161.977 256.262 162.369 256.06 162.762C255.431 163.986 255.962 165.711 255.595 166.994C255.405 167.658 254.75 167.834 254.488 168.353C253.705 169.899 254.323 171.383 253.003 172.913C252.51 173.482 252.569 174.442 252.256 175.159L252.414 175.632C251.47 177.428 250.624 179.293 249.56 181.02L249.997 181.657L249.936 181.918C249.658 182.057 249.422 182.098 249.114 182.139C248.922 182.602 249.238 182.769 248.916 183.195C248.639 183.234 248.563 183.235 248.306 183.178C248.218 183.605 248.257 184.367 248.11 184.717C247.704 185.69 246.834 185.215 247.602 186.5L247.5 186.723C247.048 186.653 246.808 186.54 246.404 186.846C246.091 187.083 246.088 187.288 246.11 187.656C246.118 187.803 246.158 188.058 246.181 188.212L245.875 187.922L245.683 188.049C245.721 188.339 245.768 188.622 245.822 188.907L245.633 189.137L245.311 189.048C244.796 189.501 244.452 190.459 244.136 191.075C244.248 191.447 244.415 191.671 244.184 192.026C243.883 192.492 243.219 192.739 242.859 193.156C242.298 193.806 242.635 194.634 241.655 195.103L241.296 194.984L241.192 195.146L241.496 195.377C236.684 202.159 230.881 208.143 224.703 213.688C223.409 214.85 222.002 215.875 220.707 217.033C220.603 217.016 220.499 216.994 220.394 216.983C220.318 216.975 220.241 216.982 220.165 216.98C220.149 217.028 220.134 217.076 220.118 217.124C219.976 217.542 219.883 217.766 219.533 218.059L219.255 218.13C219.117 217.96 218.981 217.788 218.846 217.615C218.558 217.887 218.829 218.307 218.547 218.594C217.656 219.506 214.733 221.136 213.517 221.805C213.693 222.151 213.797 222.165 213.682 222.555L213.492 222.622L213.175 222.368C212.511 222.648 211.833 222.911 211.184 223.226L210.995 223.823C210.647 223.983 210.404 223.894 210.043 223.825C209.709 224.083 209.674 224.342 209.522 224.712C209.417 224.97 209.455 224.88 209.2 225.097C208.661 225.021 208.336 224.873 207.881 225.247C207.454 225.598 207.242 225.975 206.682 226.148C206.352 226.049 206.384 226.046 206.169 225.821C205.872 226.199 206.093 226.58 205.719 226.906L205.086 226.581C204.383 227.038 204.922 227.32 203.612 227.275C202.956 227.753 202.233 228.598 201.487 228.892C200.574 229.251 199.772 229.228 198.91 229.785C197.546 230.668 196.531 229.802 195.952 231.223C195.325 231.507 193.599 231.533 193.262 231.88C192.927 232.222 192.742 232.312 192.297 232.446C191.415 232.712 191.068 233.203 190.078 233.034C189.302 232.903 188.643 233.943 187.908 234.153C186.818 234.468 185.465 234.472 184.329 234.607C184.165 234.8 183.91 235.237 183.654 235.251C183.295 235.269 182.945 235.118 182.608 235.005C182.01 235.26 181.99 235.861 181.399 236.132L181.357 235.997L181.732 235.475L181.63 235.285C181.308 235.509 181.055 235.771 180.784 236.051C180.503 235.932 180.353 235.814 180.119 235.624L179.696 235.66C179.589 235.862 179.52 236.042 179.459 236.263C178.963 236.316 178.517 236.076 178.073 236.104C177.534 236.136 177.08 236.966 176.457 237.036L175.903 236.565C174.559 236.732 175.686 237.406 173.305 236.621C173.254 236.837 173.219 237.314 173.031 237.436C172.209 237.97 171.223 237.193 170.429 237.323C170.121 237.373 169.736 238.011 169.346 238.051C168.417 238.147 167.419 237.528 166.487 237.585C166.188 237.604 165.886 238.011 165.089 238.077C160.384 238.466 155.736 238.373 151.027 238.22C150.165 238.19 149.111 238.337 148.282 238.105C147.404 237.859 146.835 237.347 145.869 237.483C145.091 237.593 144.252 237.817 143.532 237.424L143.486 237.002L143.338 236.967C143.219 237.053 143.049 237.189 142.911 237.231C142.417 237.385 142.118 237.162 141.699 236.958C140.445 237.45 139.212 236.24 137.903 236.399C137.45 236.454 136.919 236.543 136.467 236.472C135.974 236.393 135.845 236.074 135.567 235.689L135.434 235.502C134.755 235.576 134.09 235.689 133.418 235.811C132.134 234.743 130.231 235.057 129.273 234.294C129.131 234.181 128.971 233.999 128.836 233.867L128.618 233.654C128.08 233.536 127.996 233.633 127.508 233.852C127.016 233.743 126.774 233.248 126.439 232.87C126.315 232.929 126.162 233.008 126.029 233.037C125.285 233.202 119.295 230.844 118.408 230.293L118.449 229.911L118.243 229.747C118.192 229.798 118.05 229.948 117.994 229.982C117.457 230.315 113.341 227.978 112.52 227.699L112.217 227.957C111.643 227.662 111.617 226.996 111.052 226.68L110.517 226.834C109.997 226.639 109.585 225.99 109.221 225.568L108.998 225.809C108.403 225.869 106.801 224.815 106.238 224.452C106.264 224.162 106.257 224.086 106.162 223.795C105.938 223.856 106.023 223.823 105.814 223.913C105.765 223.935 105.717 223.956 105.669 223.978C104.359 222.737 103.057 222.291 101.56 221.401C100.692 220.885 99.8657 220.265 99.0484 219.672C98.995 219.491 98.8896 219.005 98.7585 218.878C98.3134 218.452 95.8153 217.91 95.5758 217.429C95.4783 217.234 95.6439 216.544 95.5308 216.397C95.333 216.141 93.088 215.376 92.5399 214.9C92.1272 214.541 91.7943 213.856 91.5081 213.389C91.4222 213.423 91.2795 213.485 91.1895 213.49C90.6846 213.524 83.827 206.247 82.8537 205.195C82.2959 204.591 79.5766 201.542 79.5929 201.039C79.5981 200.878 79.8113 200.728 79.8243 200.432C79.7059 200.461 79.5794 200.499 79.4574 200.505C79.0166 200.528 78.9387 200.481 78.6202 200.214C78.6067 199.983 78.6114 199.715 78.5592 199.491C78.4936 199.209 78.4759 199.163 78.2306 199.03C78.3277 199.347 78.3707 199.434 78.295 199.766C77.6034 199.169 77.6497 198.243 77.0375 197.589C76.8827 197.555 76.7272 197.524 76.5738 197.485C76.4941 197.463 76.1393 197.341 76.1207 197.257C76.113 197.222 76.2204 196.908 76.2153 196.863C76.1483 196.267 73.6575 193.977 73.3922 193.029C73.2687 192.589 73.5279 192.368 73.2513 191.902L72.9462 191.981C71.8432 190.323 70.596 188.631 69.7038 186.851C69.4931 186.43 69.3975 186.251 69.5403 185.799C69.3427 185.757 69.146 185.704 68.9502 185.655C68.6742 185.026 68.54 184.435 68.3384 183.788C68.1959 183.33 68.0823 182.949 68.0097 182.474L67.8506 182.156L67.7233 182.746C67.1729 182.624 67.2376 181.465 66.9856 181.064C66.8835 180.9 66.5801 180.694 66.4293 180.556C66.4609 180.144 66.4652 179.762 66.4448 179.349C65.871 178.587 64.9126 177.451 64.6155 176.556C64.6802 176.504 64.9028 176.33 64.9468 176.272C65.1961 175.931 64.8889 175.659 64.7132 175.335C64.2729 174.524 63.1694 172.989 63.0832 172.1C63.0381 171.634 63.1445 171.12 63.0431 170.668C62.9392 170.206 62.5318 170.08 62.1574 169.839C61.9164 169.286 62.0077 168.661 62.0303 168.071L61.7478 167.791C60.9001 166.916 61.5997 165.118 61.1652 164.135C60.9231 164.296 60.8609 164.33 60.5608 164.373C60.2427 163.714 60.7352 163.375 60.7221 162.728C60.6917 161.223 58.704 157.448 59.1185 156.027C58.5642 155.032 58.5032 151.95 58.3686 150.759L58.4269 150.252C57.9075 149.325 57.9233 147.595 57.7357 146.517C57.627 145.893 57.5683 145.461 57.7281 144.848C57.8418 144.412 57.8988 144.196 57.8011 143.757C57.6533 143.624 57.5347 143.532 57.3552 143.441C57.3038 143.414 57.2512 143.391 57.1992 143.366C57.073 142.617 57.2746 141.664 57.3886 140.912C57.6439 139.231 57.0574 137.702 57.4378 135.969C57.5222 135.663 57.5416 135.744 57.4931 135.485C57.3232 134.579 57.0885 134.122 57.4349 133.247C57.6463 132.179 57.0054 129.457 57.4691 128.771C58.2232 127.657 57.9581 124.79 58.1115 123.43C58.2667 122.055 58.5706 120.605 58.9653 119.28C59.2608 118.651 59.3536 118.319 59.1366 117.661C59.0255 117.324 58.9857 117.294 59.0492 116.929L59.5535 116.591C59.5127 116.345 59.544 116.476 59.425 116.156L59.325 115.893C59.6641 114.998 59.572 113.973 59.9478 113.111C60.1537 112.638 60.5719 112.78 60.8297 112.209C60.6691 112.031 60.4393 111.817 60.3268 111.608C60.1443 111.269 60.2091 111.174 60.3382 110.847L60.8132 110.989L60.9713 110.78C60.8848 110.497 60.8032 110.233 60.7541 109.941C60.7021 109.631 60.9586 109.414 61.1329 109.164L60.8906 108.628L61.7759 107.871C61.6499 107.682 61.5211 107.494 61.3892 107.308C61.6017 106.781 61.933 105.332 62.382 105.077C62.4732 105.026 62.5657 104.977 62.6577 104.927C62.5131 104.46 62.4111 104.064 62.3919 103.574C62.6896 103.262 63.1161 103.209 63.5232 103.08C63.6416 102.791 63.1623 102.621 63.0327 102.254C64.156 101.258 63.5853 100.524 64.2417 99.3492L64.7923 99.27L64.8643 99.059C64.7816 98.9444 64.5967 98.6957 64.5363 98.5765C64.0801 97.6775 65.7617 96.9558 65.8585 96.2185C65.9213 95.7392 65.6031 95.4396 65.8363 94.9428C66.1862 94.8937 66.3375 94.8792 66.6439 94.6882C66.6394 94.4964 66.6722 94.3232 66.7415 94.1433C66.9616 93.5722 67.3936 93.2208 67.9451 93.0078C67.7588 92.6721 67.6961 92.3893 67.6168 92.0183C67.6879 91.7192 67.7216 91.6179 67.9495 91.3982C68.2193 91.138 68.119 91.2803 68.3284 90.9603C68.3699 90.897 68.407 90.8308 68.4463 90.7661L68.6325 89.9459L68.9336 89.7641L69.4012 89.9177L69.5758 89.8005L69.1724 89.4176C69.1747 89.3741 69.1713 89.3301 69.1794 89.2874C69.2675 88.8175 69.6783 88.4658 70.0251 88.1754C70.9133 87.432 70.1127 86.8853 70.6729 86.0083C70.9769 85.8614 71.3625 85.7026 71.5852 85.4416C72.3635 84.5296 72.7526 83.1149 73.4075 82.0823C74.2006 80.8316 75.5511 79.5914 76.041 78.2082L76.1302 77.9495C76.202 77.9084 76.4021 77.7962 76.4609 77.7525C76.5431 77.6914 76.6177 77.6205 76.6961 77.5545C76.9773 76.7616 77.6543 76.1254 78.1978 75.4951L79.1135 74.4547C79.8007 73.5526 80.6807 72.0029 81.7388 71.6356C81.9143 71.46 82.0445 71.2905 82.1903 71.091L81.8911 70.8496C82.1504 70.4538 82.6669 70.633 83.0602 70.2914L82.8056 69.8436L82.9539 69.6028C84.4239 69.4565 83.8744 67.7073 84.9178 67.188C84.9706 67.2287 85.2062 67.4093 85.2495 67.4485C85.2947 67.4893 85.3337 67.5367 85.3756 67.5808C85.4187 67.5207 85.4628 67.4616 85.5046 67.4008C86.0776 66.5666 94.3795 58.8285 94.8278 58.7649C95.0929 58.7271 95.0423 58.9326 95.3775 58.7785C95.3882 58.5071 95.3923 58.6006 95.3758 58.3565L95.3636 58.1993L95.656 58.0463C96.2897 57.667 96.9054 57.3981 97.5921 57.1354C97.8182 56.8424 98.1586 56.2566 98.4941 56.1479L98.6952 56.4938C101.929 53.4757 105.808 51.972 109.436 49.5726L109.793 49.8495C110.39 49.133 111.787 47.9322 112.726 47.762C113.51 47.6196 114.289 47.6392 115.043 47.3529C115.035 46.9739 115.024 46.754 115.216 46.4203L115.522 46.3605L116.292 46.9435C116.36 46.699 116.423 46.4604 116.468 46.2105C116.48 46.146 116.491 46.0811 116.502 46.0164L116.87 45.87C116.929 45.792 117.004 45.6855 117.078 45.6241C117.419 45.3402 117.649 45.47 118.047 45.5375C118.555 45.2315 119.539 44.5845 120.125 44.5409C120.589 44.5064 120.709 44.8063 121.205 44.5715C121.119 44.3475 121.086 44.2099 121.054 43.9638C122.066 43.1597 123.405 43.8334 124.395 43.3379C124.716 43.1775 124.729 42.5963 125.196 42.3244C125.369 42.2993 125.508 42.2963 125.682 42.3231C126.895 42.5095 127.86 41.5213 129.01 41.1698L129.467 41.4241C129.51 41.3901 129.551 41.3542 129.595 41.322C130.72 40.4918 143.608 37.9932 145.89 37.6988C146.469 37.624 147.138 37.8144 147.718 37.8808C148.29 37.9463 148.649 37.8593 149.103 37.4991C149.129 37.4715 149.151 37.4393 149.182 37.4167C149.375 37.274 155.677 36.9406 156.514 36.9586Z" fill="#090909"/>
<path d="M233.249 70.6809L232.74 70.5823C232.391 70.7366 231.938 70.9879 231.551 70.9925C230.958 70.9996 230.656 70.664 230.272 70.2737C230.337 69.9381 230.494 69.6507 230.604 69.3272C230.71 69.0089 231.035 68.9131 231.319 68.7432C231.655 68.9072 231.78 68.8021 232.069 68.8856C232.422 68.987 233.069 69.6801 233.345 69.9595C233.356 70.239 233.351 70.4187 233.249 70.6809Z" fill="#1D1D1D"/>
<path d="M253.569 104.97L253.416 104.94L253.298 104.753C253.345 104.533 253.509 103.954 253.442 103.752C253.12 102.766 252.272 102.377 251.992 100.925C251.941 100.661 252.014 100.781 251.766 100.601C251.775 100.889 251.769 101.153 251.854 101.432C251.868 101.48 251.888 101.527 251.907 101.574L251.679 101.895L251.462 101.924C251.051 101.746 250.757 101.518 250.436 101.202C250.096 100.866 249.933 100.604 249.932 100.125C250.489 99.8105 251.134 99.9542 251.744 99.8148C251.801 99.8014 251.859 99.782 251.918 99.7656C252.227 101.576 254.077 103.171 253.569 104.97Z" fill="#1D1D1D"/>
<path d="M258.952 147.069L258.79 146.805C258.496 146.645 258.309 146.515 257.967 146.54L257.595 147.13L257.46 147.015C257.652 145.732 257.412 144.344 257.45 143.036L257.595 142.935L257.593 142.931C257.838 143.852 258.149 145.009 258.72 145.775L258.931 145.711C259.132 144.715 258.818 143.795 258.952 142.84C259.028 142.295 259.103 141.995 259.522 141.652C259.5 142.069 259.474 142.468 259.398 142.879C259.14 144.282 259.5 145.692 258.952 147.069Z" fill="#1D1D1D"/>
<path d="M58.3685 150.76C58.4218 150.805 58.4747 150.85 58.5284 150.894C58.9895 151.273 59.2367 151.458 59.8213 151.56C59.8907 151.573 59.9593 151.589 60.0284 151.601C60.0713 151.609 60.1147 151.615 60.1578 151.622C60.3705 151.993 60.4852 152.309 60.6042 152.718C60.6713 152.949 60.6412 152.857 60.768 153.111L61.0033 153.38L60.9264 153.555L60.7392 153.395C60.3552 153.071 59.9901 152.738 59.5071 152.586L59.4078 152.875C59.5485 153.12 59.6876 153.323 59.8585 153.549C60.0275 153.773 60.0719 153.83 60.0801 154.098C59.5731 153.919 59.5303 153.344 59.0679 153.078C58.8956 153.305 58.9816 153.408 59.0213 153.691C59.1149 154.359 59.4841 155.367 59.3853 155.995L59.1185 156.028C58.5642 155.033 58.5032 151.951 58.3685 150.76Z" fill="#1D1D1D"/>
<path d="M214.554 54.1162C215.232 54.5581 216.636 55.1505 217.043 55.7932C216.459 56.4044 216.789 57.0853 216.291 57.6583C216.198 57.2763 216.127 56.9448 215.901 56.6137C214.685 56.2021 215.484 56.0125 215.074 55.2022L214.628 55.55L214.382 55.4546C214.292 54.9804 214.594 54.6632 214.554 54.1162Z" fill="#1D1D1D"/>
<path d="M141.698 236.958L142.105 236.747C142.199 236.325 142.109 235.984 142.046 235.566C142.002 235.283 142.007 235.398 142.051 235.111C142.195 235.435 142.245 235.715 142.549 235.912C142.63 235.964 142.71 236.02 142.793 236.071C142.855 236.108 142.924 236.134 142.983 236.176C143.252 236.368 143.36 236.707 143.486 237.001L143.338 236.967C143.219 237.052 143.049 237.189 142.911 237.23C142.417 237.385 142.118 237.162 141.698 236.958Z" fill="#1D1D1D"/>
<path d="M209.605 50.8701L210.054 51.1902C209.923 51.7612 209.74 52.2562 209.94 52.8254L210.344 53.2453L209.717 53.2934C209.432 53.3115 209.149 53.331 208.866 53.3522C208.708 52.8967 209.568 51.8137 209.601 51.0376C209.602 50.9819 209.604 50.926 209.605 50.8701Z" fill="#1D1D1D"/>
<path d="M259.31 136.134L258.948 136.128C258.779 135.934 258.621 135.765 258.564 135.504C258.428 134.882 258.717 134.374 259.048 133.878C259.632 134.661 259.443 135.207 259.31 136.134Z" fill="#1D1D1D"/>
<path d="M79.1135 74.4551C79.4961 74.9029 79.5433 74.9457 79.6119 75.5635L79.226 76.0214C78.8045 76.0056 78.5236 75.7352 78.1978 75.4955L79.1135 74.4551Z" fill="#1D1D1D"/>
<path d="M243.742 85.143C244.197 84.9902 244.279 84.9049 244.745 85.067C244.941 85.3615 245.141 85.6541 245.333 85.9513L244.449 86.1032C244.005 85.8833 243.957 85.5804 243.742 85.143Z" fill="#1D1D1D"/>
<path d="M104.943 69.7053C105.554 69.2413 106.594 68.8597 107.084 68.3345C107.365 68.0333 107.044 67.69 107.59 67.4668C108.533 67.0814 109.351 67.3736 110.004 66.4435C110.931 65.1221 111.361 65.7961 112.492 65.1435C112.964 64.8711 113.291 64.058 113.762 63.7811C114.342 63.4407 115.246 63.5933 115.86 63.1768L115.852 62.7236C116.338 62.3315 116.961 62.1625 117.545 61.9569C118.744 61.5348 118.866 60.7977 119.601 60.4778C119.783 60.3984 120.161 60.3839 120.362 60.3469C121.604 60.1192 121.959 59.8211 122.81 58.92C123.116 58.9526 123.875 59.0846 124.151 58.9815C125.25 58.5699 126.207 57.576 127.356 57.1953C127.983 56.9874 128.961 57.0806 129.628 57.069C129.844 56.7523 130.019 56.4019 130.388 56.2522L130.161 56.8459L130.252 56.9402C130.691 56.6388 130.734 56.3616 130.94 55.8794C132.157 55.4707 133.48 55.4813 134.714 55.0507C135.242 54.0315 136.333 55.112 137.3 54.6342L137.234 54.1644C137.704 53.9861 138.517 53.525 138.98 53.6738L139.013 54.2175L139.167 54.3352C139.349 54.1576 139.648 53.7933 139.875 53.6908C140.85 53.2512 143.09 53.7934 144.039 53.182C144.402 52.9478 144.717 52.6339 145.108 52.4296C145.959 51.9854 146.562 52.857 147.38 52.6913C148.112 52.5429 148.64 52.0453 149.427 51.9539C149.554 52.1866 149.597 52.2426 149.817 52.4147C150.199 52.2442 150.585 52.0835 150.975 51.9324C151.215 52.1778 151.355 52.3457 151.695 52.4299L151.868 52.2802L151.768 51.6729C152.076 51.7521 152.114 52.0939 152.534 52.1971L152.815 51.844C154.872 51.868 156.929 51.8632 158.986 51.8296C159.71 51.8108 160.438 51.6761 161.159 51.6777C161.419 51.6783 161.619 51.7586 161.846 51.8793C162.151 52.0417 162.154 52.1013 162.532 52.0976C164.874 52.0741 167.156 52.5146 169.485 52.5051C169.759 52.5041 171.367 52.3716 171.508 52.4688C171.647 52.5653 171.62 53.0678 171.969 53.3193C172.39 53.2458 172.466 53.0274 172.736 52.7164L173.053 52.7122L173.215 53.1492C174.056 53.8674 176.554 53.3513 177.681 53.8285C177.947 53.9411 179.057 54.5461 179.305 54.4516C179.596 54.3395 179.557 53.9748 179.973 54.0649C180.489 54.1763 180.826 55.013 181.462 55.0322L181.434 54.1281L181.572 53.9915L181.809 54.1575C181.773 54.4565 181.753 54.6922 181.806 54.9897C181.885 55.0399 181.999 55.1167 182.088 55.1614C182.811 55.5292 184.036 55.9643 184.804 55.7352L185.08 55.202C185.2 55.6479 185.176 55.7956 185.556 56.0765C185.881 56.1225 186.186 56.1424 186.515 56.1508C186.741 56.1567 186.954 56.1613 187.18 56.1564C187.264 56.5907 187.223 56.6006 187.583 56.8484C188.05 56.9147 188.322 56.7778 188.737 56.5946C188.757 56.672 188.774 56.7501 188.796 56.8267C188.875 57.0945 188.926 57.177 189.118 57.3632C189.417 57.4584 189.649 57.5281 189.962 57.561C191.46 57.7188 193.081 58.7529 194.523 59.2491L194.426 59.7765C195.102 60.2723 196.076 59.8715 196.75 60.1942C197.024 60.3252 197.158 61.0915 197.476 61.3107C198.082 61.728 198.818 61.3833 199.43 61.9767C199.691 62.2311 199.953 62.4838 200.211 62.7422C200.58 62.5869 200.406 62.673 200.732 62.4882C202.479 63.3593 203.587 64.9864 205.627 65.2854C206.135 65.8987 206.691 66.7438 207.355 67.1792L207.452 67.0023L207.281 66.6205C208.355 66.6028 209.489 67.8861 210.223 68.6093C210.656 69.0376 211.031 69.5188 211.46 69.9488L211.834 69.6846C212.587 70.1031 212.847 71.922 213.752 71.6826C213.881 71.6485 214.009 71.6075 214.136 71.5683C214.596 72.1616 215.076 72.7523 215.619 73.272C216.352 73.9751 219.428 76.1413 219.716 76.8915C219.776 77.0491 219.652 77.3937 219.735 77.5392C219.776 77.6145 220.436 77.697 220.552 77.7766C221.058 78.1263 221.168 79.2839 221.824 79.4436L222.126 79.2536L222.386 79.4857C222.367 79.7613 222.33 80.0218 222.279 80.2931C222.672 80.7268 223.55 80.7992 223.805 81.2148C224.514 82.3734 225.527 83.3442 226.435 84.3485C226.725 84.6682 226.41 84.9027 226.859 85.2143L227.328 85.1667L227.348 85.3772L227.153 85.5956C227.807 86.4378 228.364 87.4833 229.348 87.9477C229.591 88.0627 229.492 88.0057 229.676 88.2942C229.574 88.6719 229.472 89.0217 229.461 89.4163L229.65 89.6619L230.099 89.5913C230.82 90.4975 231.98 91.8634 232.385 92.9191C232.535 93.3104 232.772 93.484 233.086 93.7419L233.543 95.3424C233.89 95.6003 234.323 95.8927 234.594 96.2301C235.598 97.4848 237.465 102.196 238.351 103.939C238.363 104.355 238.281 104.732 238.541 105.067L238.86 105.072C238.851 105.398 238.759 105.567 238.979 105.817C240.052 107.032 241.064 113.18 241.988 114.066L241.906 114.493C241.88 114.821 241.906 114.973 242.048 115.257C242.243 115.643 242.988 118.389 242.948 118.825L243.302 118.938C243.047 120.754 244.113 122.327 243.616 123.815L243.722 124.066L244.127 123.841C244.455 125.871 243.934 128.289 244.723 130.183C244.952 130.733 245.178 131.167 245.056 131.77C245.036 131.868 245.02 131.966 245.002 132.064C244.986 132.14 244.969 132.216 244.954 132.291C244.571 133.089 244.745 133.49 245.031 134.298L245.105 134.504C244.842 135.505 245 139.486 244.878 141.022C245.101 141.345 245.206 141.361 245.574 141.518C245.409 142.093 244.91 142.107 244.655 142.546C244.256 143.233 245.238 145.472 244.268 147.085C244.401 147.314 244.499 147.45 244.674 147.64C244.503 148.39 244.093 149.119 244.008 149.875C243.889 150.944 244.039 152.078 243.845 153.137C243.664 154.137 242.918 154.608 243.019 155.722C243.058 156.152 243.194 156.912 242.892 157.257C242.734 157.438 242.513 157.595 242.324 157.743C242.13 158.753 242.57 159.965 242.262 160.878C242.214 160.842 242.164 160.807 242.116 160.773C241.875 160.605 241.963 160.666 241.661 160.505C241.031 161.593 241.315 163.907 240.513 164.681C240.391 165.063 240.47 165.257 240.575 165.63C240.323 165.78 240.126 165.802 240.045 166.097C239.945 166.461 239.99 166.284 239.954 166.671C239.833 167.995 238.696 169.027 238.429 170.296L238.445 170.753C238.406 170.795 238.363 170.834 238.327 170.878C237.733 171.614 236.31 174.358 236.462 175.291C236.488 175.452 236.532 175.609 236.571 175.767L236.352 175.989C236.122 176.02 235.9 175.969 235.759 176.169C235.086 177.115 232.549 181.69 232.303 182.645C231.952 182.904 231.648 183.226 231.353 183.546C230.856 184.085 227.916 189.06 227.533 189.982L227.112 189.716C226.429 190.488 222.665 196.011 221.902 195.982C221.83 195.978 221.567 195.881 221.493 195.855C221.004 196.276 221.216 196.483 220.959 196.986C220.748 197.401 215.049 202.99 214.303 203.495C214.054 203.664 213.826 203.699 213.545 203.769C213.266 203.838 212.991 203.925 212.712 203.998C212.607 204.444 212.936 204.82 212.582 205.091C211.977 205.55 209.873 206.759 209.177 207.098C208.502 207.428 207.807 208.267 207.291 208.819C206.663 209.493 205.804 209.299 205.18 209.79C204.748 210.129 204.624 210.702 204.162 211.016C203.303 211.601 202.199 211.923 201.259 212.364C200.153 212.884 199.106 213.497 197.979 213.98C197.983 214.033 197.987 214.085 197.99 214.139C198.003 214.33 197.998 214.511 197.989 214.701C197.453 215.122 195.935 214.904 195.806 215.454C195.791 215.523 195.777 215.768 195.771 215.848C195.215 216.042 194.926 215.638 194.413 215.653C194.128 215.662 193.108 216.551 192.447 216.648C192.307 216.84 192.197 216.997 192.098 217.215C192.02 217.22 191.943 217.234 191.864 217.227C191.802 217.221 191.559 217.141 191.492 217.119C191.316 217.257 191.187 217.37 191.037 217.54C190.708 217.215 190.688 217.117 190.234 217.077L190.033 217.201C190.138 217.436 190.248 217.668 190.366 217.899C190.062 218.021 189.901 217.994 189.578 217.994C188.94 217.995 188.678 218.15 188.157 218.473C187.697 218.758 187.301 218.976 186.761 219.04L186.651 218.636C186.432 218.819 186.388 218.936 186.268 219.187C185.806 219.462 185.394 219.695 184.875 219.849C184.476 219.64 184.436 219.572 183.987 219.712C182.954 220.032 182.134 220.63 181.041 220.831C180.038 221.015 176.693 221.592 176.09 222.238C175.568 222.314 175.159 222.286 174.638 222.207L174.372 222.38C173.816 222.362 173.285 222.447 172.728 222.427L172.123 223.112L171.887 223.04L171.729 222.645L171.545 222.721L171.412 223.047C171.129 222.961 171.002 222.844 170.791 222.639C169.683 222.806 169.689 223.642 168.454 223.105C168.114 222.956 167.851 222.783 167.474 222.917C166.996 223.091 166.716 223.378 166.182 223.389C165.08 223.416 163.979 223.471 162.882 223.56L162.69 223.201L162.449 223.179C162.258 223.391 162.161 223.575 162.046 223.835L161.811 223.916L161.435 223.442C160.534 223.422 159.845 224.368 158.95 223.639L158.918 223.256C158.156 223.313 157.317 223.866 156.619 223.793C156.081 223.289 155.593 223.42 154.88 223.444C153.893 223.476 152.84 223.505 151.866 223.665C151.631 223.444 151.573 223.409 151.285 223.309C150.798 223.45 150.603 223.597 150.232 223.943C150.164 223.809 150.135 223.626 150.096 223.479C149.784 223.233 149.714 223.148 149.325 223.1C149.222 223.168 149.041 223.292 148.935 223.341C148.449 223.567 147.704 223.153 147.213 222.992C146.858 223.077 146.538 223.148 146.172 223.171L145.764 222.685C145.56 222.643 145.384 222.619 145.177 222.66C144.752 222.747 144.286 222.889 143.85 222.872C142.968 222.837 141.179 221.693 140.38 222.049C140.038 222.202 140.218 222.326 139.742 222.389L139.258 221.936C138.052 221.673 134.783 220.397 133.79 220.614C133.703 220.633 133.618 220.659 133.532 220.682L132.905 219.822C132.328 219.644 132.681 220.054 132.194 220.301C131.794 219.947 131.361 219.444 130.871 219.247L130.384 219.712L130.09 219.661C130.062 219.371 130.058 219.317 129.887 219.063C128.717 218.842 128.047 218.452 127.109 217.761C126.947 217.95 126.799 218.102 126.6 218.25C125.258 218.068 124.977 216.667 123.901 216.424C123.407 216.549 123.037 216.661 122.525 216.54C122.536 216.274 122.507 216.063 122.449 215.803L122.196 215.653L122.197 216.011L122.078 216.077C120.847 215.181 118.056 214.317 117.524 213.887C117.401 213.788 117.234 213.35 117.154 213.192C116.405 212.975 115.267 212.735 114.684 212.231L114.654 211.609L114.42 211.421C114.237 211.48 114.063 211.541 113.887 211.619C113.839 211.641 113.792 211.664 113.745 211.688C112.644 210.841 111.429 210.166 110.332 209.313L110.181 209.194L109.689 209.274C109.4 208.824 109.058 208.126 108.532 207.95L108.148 208.275C107.486 207.049 101.644 203.088 100.117 201.775L100.239 201.476C100.041 201.086 99.1485 201.134 98.7277 200.715C98.7978 200.495 98.8476 200.306 98.8846 200.074C98.7075 200.063 98.5314 200.049 98.3553 200.026C97.3344 199.895 95.1515 196.568 94.4605 195.675C93.6354 194.607 92.4925 193.969 91.6393 192.973C90.966 192.186 90.6129 190.75 89.6662 190.299C88.4459 189.719 89.0805 189.564 88.5541 188.662C88.3222 188.264 87.3748 187.629 87.0177 187.255C87.1437 187.052 87.2158 186.886 87.2785 186.656C86.8971 186.069 86.091 185.862 85.6042 185.379C84.9408 184.719 85.0799 183.26 84.4478 182.655C84.1455 182.367 83.6573 182.234 83.3162 181.904C83.3344 181.602 83.3734 181.263 83.3357 180.964C83.2765 180.494 82.7808 180.215 82.4319 179.95C81.7985 179.468 82.3006 179.203 82.1616 178.701C81.9612 177.978 80.7258 176.415 80.3451 175.49L80.544 175.03L80.3393 174.785L79.8272 174.923C79.3992 174.155 79.9496 173.044 79.4408 172.361C79.258 172.354 79.0878 172.35 78.9051 172.369C78.8567 172.374 78.8085 172.381 78.7602 172.388C77.9622 171.101 77.9352 168.891 76.8075 167.927C76.7342 167.863 76.6578 167.804 76.583 167.744L76.8381 167.247C76.7048 166.52 76.1812 166.094 75.8927 165.442C75.7706 165.167 76.0298 164.768 76.1393 164.491C75.945 164.018 75.3711 164.182 75.2872 163.741C75.2548 163.57 75.4593 163.237 75.4573 163.046C75.4486 162.186 74.2015 160.423 73.9072 159.48C73.6571 158.677 74.0812 157.748 73.6839 157.039C72.9137 155.665 73.8102 155.566 73.6136 154.798C73.4878 154.307 72.7536 153.844 72.6256 153.287C72.3738 152.192 72.9672 150.518 72.5668 149.497C72.4753 149.263 72.1427 149.05 72.0587 148.817C72.0218 148.715 71.7153 143.79 71.7367 143.567C71.7663 143.256 71.7745 142.947 71.7873 142.635C71.8486 142.3 71.7799 142.154 71.6404 141.849C71.6112 141.512 71.5935 141.639 71.6749 141.32C71.6935 141.247 71.716 141.175 71.7364 141.102L71.3525 140.584L71.6034 140.38C71.8317 139.644 71.6763 139.251 71.3429 138.594C71.0844 138.084 71.4302 136.529 71.4971 135.909L71.8517 135.766C72.0356 135.274 71.5338 135.49 71.4076 134.959C72.3 134.106 71.183 133.658 71.5469 132.892C71.7336 132.499 72.1068 132.521 72.247 131.979C71.915 131.725 71.6937 131.512 71.4389 131.173C71.2951 130.262 71.522 129.395 71.8234 128.538C72.0955 128.604 72.1651 128.629 72.4438 128.552C72.5266 127.961 72.1119 127.664 71.9172 127.156C71.6115 126.357 72.5756 126.377 72.6697 125.813C72.833 124.835 72.1367 123.699 72.6657 122.765C72.8945 122.361 73.0205 122.092 73.0665 121.626C73.0911 121.377 73.1112 121.205 73.1912 120.96C73.2124 120.896 73.2395 120.833 73.2637 120.769L73.1428 120.529C73.229 119.864 73.961 116.907 73.9441 116.726C74.0464 116.573 74.1266 116.395 74.2123 116.231C73.6266 114.508 75.8475 112.788 75.7531 112.16C75.7243 111.968 75.496 111.893 75.4997 111.648C75.5275 109.769 78.7288 104.102 78.7776 103.043C78.4349 103.051 78.3646 103.097 78.0587 102.916C78.2564 102.605 78.9351 102.362 79.2839 102.162C79.7053 100.795 80.4443 98.4786 81.2369 97.3314C81.4793 96.9806 81.9466 96.6542 82.2766 96.3787C82.2783 96.1073 82.233 95.626 82.3184 95.3823C82.7083 94.2705 84.6775 92.0014 85.4239 90.9174C86.2436 89.7269 86.912 88.4404 87.7622 87.27C88.1557 86.7284 89.1807 85.7075 89.3751 85.1216C89.4693 84.8379 89.2451 84.7221 89.48 84.4115C90.4318 83.1528 91.0692 84.1301 91.7513 81.7646C93.4826 80.7053 94.6754 78.8486 96.0705 77.3999C97.2451 76.18 98.5438 75.0643 99.8061 73.9364L99.7545 73.4863C99.5247 73.4364 99.2996 73.3787 99.0722 73.3188C99.3358 72.9547 99.829 72.6281 100.234 72.439C100.608 72.2638 100.862 72.3682 101.231 72.4882L101.465 72.5277C102.021 72.1661 102.649 71.8239 103.104 71.338C103.531 70.9871 104.157 70.6065 104.444 70.1427C104.585 69.9149 104.718 69.8439 104.943 69.7053Z" fill="#FAFAF9"/>
<path d="M99.8061 73.9362L99.7546 73.4861C99.5247 73.4362 99.2996 73.3785 99.0723 73.3186C99.3359 72.9545 99.829 72.6279 100.234 72.4388C100.608 72.2636 100.863 72.368 101.231 72.488L101.141 72.6072C101.044 72.7366 100.96 72.8748 100.866 73.0067C100.599 73.3856 100.204 73.6995 99.8061 73.9362Z" fill="#1D1D1D"/>
<path d="M207.129 151.404C207.025 151.518 206.948 151.665 206.815 151.746C206.11 152.181 201.044 153.009 199.927 153.152C199.558 153.2 198.376 153.135 198.117 153.277C197.839 153.429 198.088 153.644 197.597 153.789C197.541 153.714 197.493 153.632 197.43 153.564C197.034 153.141 193.958 153.545 193.144 153.451C191.853 153.3 187.827 152.627 186.819 151.929C186.676 151.829 186.465 151.452 186.344 151.295C186.149 151.425 185.979 151.504 185.756 151.579C185.558 151.446 185.423 151.303 185.273 151.121C184.922 150.699 184.19 150.891 183.648 150.727C183.484 150.459 183.304 150.094 183.029 149.93C182.524 149.629 181.947 149.435 181.445 149.117C177.924 146.883 174.548 143.051 172.48 139.472C168.833 133.161 167.973 122.956 168.724 115.788C169.013 113.013 169.691 110.32 170.384 107.626C170.629 106.676 171.646 105.897 171.558 104.982C171.452 103.87 174.057 99.4463 174.796 98.3097L175.141 98.451C175.774 97.5711 176.35 96.2509 177.119 95.5344C177.602 95.084 178.255 94.7882 178.783 94.3875C179.899 93.5402 182.499 90.8062 183.931 90.9068C184.204 90.926 184.354 90.9203 184.62 90.8633L184.882 90.3463C185.097 90.379 185.253 90.4216 185.459 90.5065C185.526 90.5341 185.59 90.5643 185.656 90.593C185.786 90.2801 185.94 90.0162 186.123 89.7317C186.364 89.7679 186.651 89.8354 186.894 89.825C187.42 89.8026 187.511 89.3746 187.857 89.0438C188.087 88.8218 188.066 88.7887 188.403 88.7988L188.293 89.2537C188.525 89.2073 188.426 89.2449 188.657 89.1145C189.016 88.9104 189.613 88.4688 190.033 88.4251C190.514 88.375 190.768 88.6946 191.124 88.965L191.313 88.9367L191.395 88.4321C191.858 88.3948 192.328 88.3275 192.788 88.2533C193.687 88.108 194.65 88.2849 195.556 88.3734L195.981 87.9633C197.221 87.7291 198.856 88.2182 200.075 88.4555C200.309 88.3141 200.504 88.2148 200.767 88.1386C202.108 88.5836 209.749 90.9718 210.081 91.7575C210.169 91.9671 209.988 92.0271 210.164 92.318L210.636 92.1966C211.658 92.6017 212.848 93.5564 213.713 94.2441C214.882 95.1745 219.992 100.489 219.982 101.823C219.981 101.884 219.865 102.268 219.874 102.295C220.033 102.78 221.024 103.222 221.275 103.814C223.01 107.91 223.872 112.376 224.428 116.761C224.61 118.211 224.14 119.679 224.324 121.078C224.381 121.511 224.609 121.918 224.705 122.34C224.83 122.895 224.24 123.381 224.191 123.963C224.115 124.839 224.2 125.711 224.1 126.593C223.9 128.319 223.606 130.212 223.137 131.884C222.948 132.553 222.609 133.175 222.428 133.843C222.285 134.365 222.318 134.961 222.135 135.463C221.555 137.058 220.612 138.959 219.758 140.431C219.485 140.897 219.357 140.906 218.834 141.04C218.809 141.587 218.868 142.328 218.623 142.822C218.343 142.781 218.154 142.762 217.869 142.794C217.753 143.238 217.564 143.461 217.267 143.795C217.065 144.024 217.139 144.476 217.13 144.784L216.969 144.771L216.698 144.234L216.473 144.167C216.469 144.456 216.447 144.739 216.427 145.027C215.747 146.047 213.203 148.071 212.09 148.616C211.091 149.105 210.163 150.037 209.157 150.625C208.477 151.024 208.418 151.089 207.669 150.952L207.129 151.404Z" fill="#090909"/>
<path d="M196.792 101.884L196.916 101.822C197.08 101.915 197.19 101.959 197.379 101.964C198.269 101.99 198.832 102.586 199.665 102.67C200.612 102.766 201.468 103.092 202.296 103.552C206.219 105.731 208.364 109.707 209.186 114.014C209.335 114.784 209.051 115.503 209.27 116.255C209.465 116.92 209.765 117.713 209.731 118.408C209.681 119.391 209.752 124.53 209.435 125.099C209.359 125.235 209.212 125.316 209.099 125.425C209.254 125.638 209.186 125.556 209.364 125.752L209.491 125.889C208.825 132.179 207.042 134.614 202.524 138.811L202.284 138.485C201.673 138.338 199.798 139.548 198.99 139.703C198.955 139.71 198.58 139.772 198.527 139.792C198.088 139.961 197.95 139.895 197.495 139.796C196.401 140.299 194.571 139.833 193.416 139.679C190.101 139.237 187.753 136.824 185.838 134.299L185.467 134.374C184.939 133.97 184.948 132.554 184.615 131.953C184.386 131.537 183.903 131.145 183.614 130.735C183.648 130.575 183.673 130.413 183.714 130.255C183.933 129.434 182.893 125.439 182.735 124.21C182.475 122.195 182.688 120.038 182.893 118.028C183.232 114.7 183.871 110.785 185.547 107.857C186.053 106.974 187.284 106.04 187.487 105.134C189.565 103.72 191.728 102.176 194.322 101.948C195 101.889 195.99 102.218 196.597 101.971C196.664 101.944 196.727 101.913 196.792 101.884Z" fill="#FAFAF9"/>
<path d="M180.622 118.85C181.072 118.782 181.455 118.721 181.91 118.797L181.924 119.04C181.749 119.222 181.606 119.392 181.461 119.601C181.414 119.669 181.369 119.739 181.323 119.808L180.975 119.497C180.599 119.466 180.357 119.443 180.029 119.252L180.154 118.994L180.622 118.85Z" fill="#1D1D1D"/>
<path d="M139.351 88.052C139.69 87.9257 139.916 87.822 140.285 87.8577C140.444 88.2263 140.417 88.4486 140.406 88.8378C140.832 88.655 140.718 87.9088 141.139 87.7734C142.603 87.3018 146.749 87.8947 148.259 88.4246C149.619 88.8067 150.813 89.2282 152.072 89.878C152.604 89.9252 153.439 90.4346 153.92 90.6874C157.703 92.6768 160.317 95.0922 162.337 98.8212C162.67 99.4364 163.157 100.107 163.368 100.772C163.597 101.491 163.58 102.273 163.811 103.013C164.032 103.11 164.239 103.215 164.45 103.334C164.554 104.887 164.719 106.44 164.676 107.998L164.523 108.079C164.464 107.739 164.52 107.882 164.385 107.637C163.899 108.055 163.348 108.698 162.709 108.815L162.521 108.485C162.294 108.4 162.219 108.409 161.981 108.469C160.232 108.915 152.676 108.86 150.748 108.575C149.647 107.874 149.38 105.453 148.74 104.31C148.082 103.136 147.062 102.521 145.804 102.162L145.606 102.107L145.369 101.571C144.404 101.265 142.903 101.449 141.869 101.434C141.679 101.201 141.597 101.118 141.329 100.96C141.098 101.176 140.908 101.339 140.625 101.481C140.345 101.321 140.193 101.24 139.871 101.175C139.86 101.238 139.862 101.304 139.838 101.364C139.696 101.713 139.061 101.474 138.643 101.691C137.114 102.484 135.544 103.595 135.037 105.332C134.656 106.637 134.887 107.957 135.569 109.12C137.416 112.27 143.149 113.819 146.519 114.694C146.606 114.886 146.668 115.058 146.723 115.264C146.743 115.335 146.76 115.406 146.778 115.478L147.037 115.564C147.233 115.388 147.184 115.473 147.28 115.238C147.301 115.184 147.319 115.129 147.339 115.075C149.122 115.323 153.703 117.498 155.383 118.485L155.324 118.171L155.494 118.126C155.749 118.243 155.997 118.374 156.235 118.518C160.624 121.115 163.38 125.035 164.586 129.931C165.841 135.028 164.526 140.381 161.815 144.769C161.247 145.689 160.073 147.459 159.206 148.076C158.949 148.258 158.515 148.323 158.214 148.394C157.76 148.501 157.728 149.123 157.472 149.462C157.05 150.026 154.62 150.399 153.899 150.939C153.972 151.317 153.947 151.122 153.971 151.523C153.671 151.511 152.989 151.399 152.72 151.471C152.439 151.546 152.433 152.051 151.941 152.085C151.668 152.104 150.855 151.894 150.652 151.973C150.432 152.058 150.234 152.733 149.821 152.931L149.614 152.654C148.931 152.398 147.769 153.297 146.984 153.284C145.974 153.266 145.107 153.61 144.145 153.612C143.581 153.612 142.992 153.482 142.423 153.449C139.638 153.287 136.803 153.224 134.113 152.42C133.935 152.512 133.764 152.592 133.581 152.671C132.881 152.385 131.909 152.063 131.42 151.47C131.192 151.194 131.355 151.343 131.085 151.136L130.549 151.426C130.151 151.301 130.117 151.094 129.899 150.757C128.011 149.939 126.166 148.911 124.681 147.462C123.063 145.883 120.768 143.025 119.993 140.898C119.789 140.337 119.879 139.414 119.866 138.808C119.674 138.696 119.483 138.589 119.285 138.488L119.094 138.392C118.623 137.601 119.045 136.861 119.015 136.02C118.974 134.858 118.508 133.899 118.788 132.696C119.242 132.174 119.035 132.693 119.393 132.636C119.859 132.563 120.301 131.666 120.93 131.666C121.496 131.667 122.037 131.941 122.629 131.873C125.841 131.501 129.288 131.474 132.484 131.924C133.707 133.396 133.641 135.016 134.577 136.562C135.785 138.558 138.07 139.898 140.289 140.45C141.013 140.631 142.256 141.043 142.908 140.627C142.971 140.588 143.03 140.544 143.091 140.502C143.379 140.548 144.219 140.787 144.469 140.727C144.638 140.686 144.765 140.542 144.914 140.452C145.849 139.886 146.17 139.996 147.175 140.207C147.355 139.795 147.447 139.476 147.796 139.176L148.032 139.407C148.347 139.382 149.67 137.754 150.067 137.397C150.559 135.837 151.013 134.34 150.358 132.742C150.146 132.224 149.715 131.464 149.305 131.08C147.61 129.489 143.062 128.345 140.779 127.451C140.496 127.639 140.646 127.558 140.328 127.693L138.489 126.893C138.584 126.673 138.632 126.666 138.569 126.422C137.307 126.247 135.867 126.128 134.659 125.732C134.231 125.592 134.203 125.363 134 124.989C131.461 124.335 126.641 121.663 124.868 119.751L125.021 119.42L124.924 119.23L124.549 119.372C124.041 119.173 124.368 118.425 124.013 118.232C123.651 118.036 123.53 118.252 123.21 117.876L123.428 117.421C121.766 115.476 120.743 112.811 120.57 110.27C120.23 105.29 121.297 99.6617 124.543 95.7123C125.338 94.7455 126.467 93.8498 127.423 93.0387C128.294 92.3001 129.736 92.0781 130.432 91.261C130.685 90.9637 130.903 90.7775 131.24 90.573C132.411 89.8628 135.376 88.3927 136.689 88.7122C137.331 88.2461 138.578 88.0714 139.351 88.052Z" fill="#090909"/>
<path d="M123.775 102.118L123.969 101.894L123.911 101.592L123.75 101.546C123.399 101.444 123.102 101.377 122.819 101.131C122.792 100.769 122.789 100.772 123.004 100.48C123.334 100.451 123.535 100.456 123.849 100.559C123.927 100.584 124.008 100.6 124.083 100.633C124.459 100.801 124.748 101.219 124.888 101.595C124.631 102.012 124.324 102.261 124.481 102.763C124.615 103.19 124.942 103.369 125.294 103.596L125.235 103.819C124.863 103.835 124.797 103.833 124.47 103.659L124.359 103.279C124.105 103.205 123.849 103.135 123.592 103.069C123.461 102.657 123.617 102.502 123.775 102.118Z" fill="#1D1D1D"/>
<path d="M172.948 172.143C173.24 172.154 173.361 172.123 173.632 172.035C174.166 171.056 181.721 163.645 182.916 162.656C183.806 161.913 184.793 161.293 185.849 160.814C187.663 160.003 189.251 160.251 191.044 160.937C191.777 161.265 192.395 161.775 193.036 162.255C193.104 162.453 193.15 162.602 193.173 162.813C193.915 163.114 194.336 163.791 194.652 164.521C195.45 166.365 195.378 169.287 194.563 171.131C194.198 171.96 193.678 172.723 193.189 173.483C192.881 173.437 193.036 173.497 192.749 173.25C192.322 173.678 192.745 174.181 192.334 174.688C192.133 174.666 191.938 174.638 191.74 174.604C190.849 175.808 189.914 177.319 188.683 178.184L188.313 178.048C187.826 178.543 187.762 179.283 187.293 179.791C185.083 182.185 182.148 184.099 180.233 186.759L180.388 187.14C180.111 187.521 179.625 187.57 179.178 187.662C176.167 190.798 173.014 193.793 170.273 197.173C170.013 197.156 169.788 197.102 169.536 197.032C169.044 197.331 168.908 198.173 168.487 198.645C165.793 201.668 162.633 204.409 159.732 207.237C159.122 207.832 158.658 208.562 158.05 209.147C157.759 209.429 157.514 209.553 157.112 209.635L156.437 209.449C156.252 209.733 156.254 209.96 156.231 210.288C155.893 210.287 155.886 210.174 155.65 209.949C155.448 210.231 155.248 210.506 155.027 210.773C152.244 210.722 149.925 210.711 147.492 209.127C147.127 208.889 146.595 208.576 146.309 208.25C146.216 208.143 146.207 208.075 146.171 207.954L146.395 207.442C146.084 207.264 145.811 207.343 145.526 207.216C143.972 206.532 140.279 202.15 139.171 200.726L138.839 200.879C137.891 199.922 136.8 198.399 135.669 197.721C135.613 197.687 135.557 197.652 135.5 197.618L135.461 197.218C134.45 196.559 133.555 195.836 132.747 194.938C130.15 192.24 127.454 189.674 124.771 187.064C124.708 186.718 124.694 186.394 124.427 186.139C124.102 186.176 124.216 186.148 123.927 186.235C123.863 186.253 123.801 186.275 123.737 186.295L123.423 186.009C123.346 185.64 123.324 185.447 123.062 185.163C121.601 183.575 119.883 181.586 119.655 179.361C119.446 177.257 120.086 175.158 121.433 173.53C122.776 171.883 124.633 171.389 126.644 171.149C127.314 171.036 127.815 171.111 128.471 171.253L128.665 171.332C131.857 172.671 133.908 175.489 136.368 177.762C137.119 178.457 138.255 179.071 138.798 179.926L138.835 180.552C139.116 180.682 139.194 180.531 139.397 180.599C139.859 180.755 141.479 182.702 141.944 183.154C143.03 184.208 144.165 185.235 145.369 186.151C145.399 186.343 145.387 186.546 145.458 186.727C145.471 186.762 151.176 192.236 151.818 192.951C152.098 192.788 152.103 192.751 152.447 192.746L152.823 193.075C153.416 192.753 153.836 191.858 154.324 191.355C155.536 190.106 156.921 188.979 158.212 187.809C158.223 187.734 158.234 187.66 158.246 187.587C158.305 187.262 158.271 187.386 158.423 187.083L158.755 187.276C158.95 186.937 159.076 186.614 159.209 186.25L159.45 186.12L159.913 186.301L160.066 186.119L159.978 185.526C161.052 184.575 162.093 184.171 162.757 182.846C162.925 182.507 163.159 182.096 163.551 181.997C163.664 181.967 163.859 181.978 163.978 181.981C164.939 180.932 166.448 178.628 167.807 178.358L168.008 178.125C167.795 178 167.686 177.966 167.453 177.915C167.77 177.22 169.145 177.053 169.405 176.522C169.426 176.48 169.422 175.963 169.443 175.912C169.46 175.869 169.527 175.87 169.57 175.855C169.782 175.779 169.928 175.81 170.144 175.839C171.163 175.09 170.572 174.313 172.386 173.581C172.454 172.843 172.384 172.655 172.948 172.143Z" fill="#090909"/>
<path d="M132.747 194.938C133.135 194.734 133.333 194.653 133.786 194.649L134.319 194.989L134.561 194.912L134.811 194.418L135.036 194.506C135.025 194.895 134.91 195.18 134.779 195.54C134.905 195.854 135.034 196.128 135.203 196.421C135.363 196.696 135.426 196.896 135.461 197.218C134.45 196.559 133.555 195.836 132.747 194.938Z" fill="#1D1D1D"/>
<path d="M191.044 160.937C191.777 161.265 192.395 161.775 193.036 162.255C193.104 162.453 193.15 162.602 193.173 162.813C192.757 162.54 192.404 162.339 191.927 162.19L191.794 162.412C191.949 162.732 192.119 163.039 192.294 163.347L192.169 163.512C191.726 163.291 191.502 162.916 191.344 162.45C191.226 162.102 191.339 162.241 191.081 162.043C190.988 162.261 190.965 162.494 190.746 162.6C190.684 161.941 190.787 161.542 191.044 160.937Z" fill="#1D1D1D"/>
<path d="M172.948 172.144L173.331 172.766C173.463 172.978 173.421 172.907 173.65 173.119C173.701 173.704 173.232 174.38 172.971 174.896L172.596 175.075L172.418 174.962C172.462 174.501 172.564 174.021 172.386 173.582C172.454 172.843 172.384 172.656 172.948 172.144Z" fill="#1D1D1D"/>
<path d="M126.644 171.15C127.314 171.037 127.815 171.111 128.471 171.253L128.093 171.346C127.792 171.735 127.542 172.058 127.124 172.332C127.051 171.972 127.013 171.546 126.768 171.26C126.732 171.218 126.685 171.187 126.644 171.15Z" fill="#1D1D1D"/>
<path d="M153.69 207.103L153.944 207.038C154.078 207.603 154.208 208.228 154.102 208.804C153.564 208.812 153.126 208.846 152.614 209.024C152.571 209.039 152.528 209.055 152.485 209.07L152.359 209.188L152.147 209.159L152.081 208.767C152.335 208.098 153.165 207.571 153.69 207.103Z" fill="#1D1D1D"/>
<path d="M138.462 188.631L138.758 188.685C139.15 189.047 139.732 189.137 139.993 189.584C139.601 189.844 139.365 189.722 138.907 189.666L138.945 190.262L138.739 190.375L138.462 190.188C138.303 189.866 138.173 189.631 138.13 189.269C138.091 188.944 138.266 188.869 138.462 188.631Z" fill="#1D1D1D"/>
<path d="M180.072 179.735L180.21 179.791L180.281 180.084C180.086 180.76 179.82 181.209 179.393 181.768C179.017 181.847 179.074 181.853 178.84 182.117L178.76 182.229L178.599 182.165C178.487 180.879 179.11 181.245 179.746 180.525C179.873 180.381 179.992 179.93 180.072 179.735Z" fill="#1D1D1D"/>
<path d="M130.176 178.738C130.724 179.094 131.332 179.066 131.867 179.382C132.064 179.498 132.007 179.466 132.062 179.701L131.722 179.808C131.479 180.004 131.259 180.165 130.981 180.309L130.707 180.189C130.546 179.698 130.362 179.22 130.176 178.738Z" fill="#1D1D1D"/>
<path d="M172.106 183.897C172.536 184.027 173.047 184.257 173.293 184.65C173.25 185.083 173.084 185.191 172.81 185.52L172.485 185.681L172.152 185.544C171.942 185.027 172.058 184.441 172.106 183.897Z" fill="#1D1D1D"/>
<path d="M146.479 191.021C146.727 191.169 146.968 191.311 147.229 191.435C147.284 191.46 147.34 191.484 147.396 191.509C147.184 191.74 147.038 191.932 146.917 192.22C146.88 192.308 146.844 192.398 146.807 192.486L146.753 192.808L146.59 192.848C146.486 192.22 146.441 191.659 146.479 191.021Z" fill="#1D1D1D"/>
<path d="M97.6814 142.202C97.1096 139.187 98.1137 125.712 97.7312 124.792C97.5706 124.405 97.3071 124.388 97.2483 123.904C97.5249 123.505 97.7552 123.199 97.8374 122.707C97.1559 121.659 97.6673 118.706 97.7226 117.336C97.6301 117.221 97.5337 117.11 97.45 116.989C97.024 116.374 97.5591 116.317 97.6891 115.813C97.9134 114.944 97.4309 113.089 97.6145 111.965C97.8465 110.543 97.4483 109.098 97.4568 107.655C97.4884 102.284 97.645 96.8829 97.5554 91.5129C97.5419 90.7111 97.6224 90.2639 97.9942 89.5426C99.8457 89.1772 101.804 89.5775 103.649 89.5654C105.543 89.553 107.513 89.1145 109.397 89.2193C109.704 89.2363 109.966 89.3354 110.241 89.4645C110.415 89.546 110.588 89.6206 110.765 89.6959L111.014 89.8038L111.378 89.5874C111.724 89.8082 111.787 90.0517 111.891 90.436C112.488 92.6544 112.198 98.055 112.307 100.515C112.339 101.233 112.565 102.158 112.462 102.857C112.41 103.21 112.144 103.634 111.976 103.951L111.866 104.156C111.899 104.416 111.943 104.525 112.085 104.757C112.128 104.829 112.176 104.898 112.222 104.969C112.21 105.706 112.279 113.825 112.181 113.932L111.791 113.578C111.679 113.914 111.87 114.194 112.026 114.508C112.152 114.761 112.325 115.002 112.377 115.286C112.516 116.049 112.263 117.229 112.237 118.028C112.162 120.312 112.316 122.554 112.107 124.845C111.994 126.085 112.365 127.203 112.363 128.427C112.361 130.05 112.073 131.614 111.963 133.222L112.408 133.353C112.323 133.679 112.242 133.989 112.229 134.329C112.215 134.696 112.215 135.067 112.206 135.435C112.18 136.303 112.158 137.101 111.947 137.948C111.891 138.168 111.945 138.275 111.964 138.487C111.966 138.507 111.956 138.525 111.952 138.544C111.9 139 111.873 139.48 111.758 139.923L112.046 140.737C112.29 141.422 112.465 142.572 112.313 143.283L111.929 143.523C112.03 144.058 112.604 145.677 112.44 146.132C112.368 146.332 111.846 146.909 111.867 147.078C111.873 147.129 112.215 147.398 112.258 147.483C112.324 147.613 112.201 151.787 112.161 152.383C111.825 152.783 111.518 153.13 110.963 153.202C109.498 153.389 107.228 152.195 106.093 153.029C103.738 152.891 100.252 153.444 98.1999 152.247C96.9393 150.614 97.9609 146.961 97.7657 144.958C97.4789 144.027 97.8182 143.167 97.6814 142.202Z" fill="#090909"/>
<path d="M108.603 140.507C108.958 140.209 109.092 140.161 109.184 139.701C109.267 139.284 109.321 139.072 109.52 138.698C109.799 138.922 109.585 139.245 109.916 139.587C110.075 139.598 110.211 139.618 110.372 139.577C110.712 139.49 110.974 139.291 111.168 139.007C111.398 138.672 111.581 138.679 111.952 138.545C111.9 139.001 111.873 139.481 111.758 139.924C111.441 139.862 111.297 139.925 111.009 140.038C110.15 140.378 109.544 140.662 108.603 140.507Z" fill="#1D1D1D"/>
<path d="M205.731 216.942C205.83 216.976 205.937 216.992 206.028 217.045C206.626 217.39 208.18 219.153 208.245 219.823C208.271 220.085 208.308 220.337 208.353 220.595C208.545 220.863 208.664 220.965 208.968 221.074C209.211 221.162 209.409 221.247 209.63 221.383L209.619 221.861C209.263 222.111 209.112 222.026 208.689 221.988L208.55 221.838C208.233 221.891 208.375 221.905 208.089 221.818C207.62 221.676 207.137 221.626 206.661 221.501C206.572 221.094 206.682 220.899 206.796 220.507C206.915 220.098 207.141 219.606 206.932 219.225C206.759 219.181 206.494 219.134 206.327 219.052C206.001 218.89 205.996 218.821 205.915 218.495L206.225 218.075L205.731 216.942Z" fill="#1D1D1D"/>
<path d="M68.2111 122.562C68.4477 122.682 68.6779 122.804 68.907 122.939C69.2387 123.133 69.5504 123.042 69.9283 123.022C70.5819 123.454 70.1436 124.518 70.6426 125.118L70.4493 124.81C70.501 124.865 70.5479 124.926 70.6045 124.976C70.6587 125.023 70.7217 125.06 70.7804 125.102L70.5719 125.234L70.6115 125.125L70.3962 125.034L70.4092 125.096L70.1803 125.099C69.9493 125.35 69.8922 125.377 69.5876 125.491L69.4283 125.284C69.4823 125.037 69.5316 124.857 69.5073 124.602C68.9732 124.66 68.5823 124.636 68.1492 124.976C68.2015 124.443 68.9502 124.184 69.3579 123.793C69.3125 123.717 69.2856 123.626 69.2215 123.565C68.8073 123.172 68.5576 123.113 68.2111 122.562Z" fill="#1D1D1D"/>
<path d="M247.797 154.344L247.949 153.545C247.794 153.16 247.645 153.135 247.269 152.958L247.132 152.895C247.426 152.716 247.495 152.683 247.656 152.385C247.571 152.103 247.514 151.904 247.505 151.606C247.862 152.005 248.13 152.24 248.635 152.436C248.678 152.453 248.721 152.468 248.765 152.484C248.754 152.568 248.738 152.652 248.729 152.736C248.675 153.227 248.865 153.737 248.997 154.204L248.871 154.455C248.481 154.48 248.175 154.421 247.797 154.344Z" fill="#1D1D1D"/>
<path d="M244.627 181.17C245.152 181.314 245.669 181.405 246.09 181.77L246.05 181.955C245.636 182.168 245.144 182.342 244.904 182.758L245.013 183.024L245.316 182.981L245.548 183.179C245.658 183.544 245.76 183.691 245.655 184.074C245.313 184.061 245.449 184.119 245.175 183.886C244.861 183.619 244.214 182.756 244.338 182.304C244.511 181.671 244.683 181.953 244.627 181.17Z" fill="#1D1D1D"/>
<path d="M200.148 48.21L200.326 48.2644C200.6 48.5415 200.673 48.6209 200.744 49.0203C200.828 49.4928 200.645 49.8244 200.393 50.2048C199.976 50.413 199.859 50.5519 199.393 50.4528C199.515 50.1367 199.572 49.9163 199.575 49.5767L199.39 49.442L198.948 49.6266L198.744 49.3659L198.863 49.6577L198.738 49.4321C199.029 48.97 199.438 48.9279 199.937 48.7336L200.148 48.21Z" fill="#1D1D1D"/>
<path d="M75.1353 84.0713C75.524 84.3971 75.874 84.7327 76.2176 85.1059C76.2066 85.5095 75.5139 85.4473 75.1886 85.8063C75.0087 86.0047 74.8443 86.194 74.6442 86.3734C74.5029 86.767 74.412 87.164 74.0774 87.4385L73.8331 87.3315C73.3818 86.3397 74.6909 85.8499 74.9903 85.0571C75.0895 84.794 75.0929 84.3595 75.1353 84.0713Z" fill="#1D1D1D"/>
<path d="M61.7752 133.371C62.1003 133.555 61.9687 133.431 62.1705 133.743L61.6387 134.144C61.6356 134.677 61.9942 134.677 62.1424 135.178L61.9893 135.397L61.3867 135.362C61.1785 135.632 61.0005 135.809 60.721 136.004C60.7135 135.781 60.706 135.895 60.7662 135.614L60.8169 135.387C60.6787 135.049 60.532 134.754 60.5697 134.379C60.6005 134.072 61.3328 133.714 61.6015 133.507L61.7752 133.371Z" fill="#1D1D1D"/>
<path d="M223.793 74.9092L224.011 74.9375C224.274 75.1468 224.395 75.3373 224.559 75.6297L224.432 75.7924L223.987 75.452L223.756 75.5046C223.699 75.9732 223.637 76.2868 223.436 76.7124C223.206 76.5923 223.104 76.5841 222.971 76.3498C222.713 75.8938 222.705 75.6763 222.833 75.1914C223.2 74.9143 223.344 74.9434 223.793 74.9092Z" fill="#1D1D1D"/>
<path d="M67.1369 142.647L67.2435 142.709C67.3697 143.141 67.4618 143.613 67.3317 144.054C67.1818 144.562 66.948 144.87 66.473 145.108L66.3058 144.907C66.4673 144.591 66.5702 144.385 66.5793 144.027L66.5258 143.987L66.5634 144.435C66.6533 144.042 66.633 144.021 66.9516 143.782L66.6044 143.852C66.365 143.729 66.2975 143.616 66.1376 143.406C66.3188 143.029 66.7807 142.862 67.1369 142.647Z" fill="#1D1D1D"/>
<path d="M241.558 178.871C241.878 178.402 241.807 178.077 242.383 177.877C242.377 178.187 242.301 178.487 242.476 178.747C242.736 179.134 242.932 179.394 242.952 179.878C242.593 179.837 242.25 179.784 241.898 179.699C241.782 179.423 241.663 179.151 241.558 178.871Z" fill="#1D1D1D"/>
<path d="M81.9335 85.6505L81.7239 85.9083L81.3654 85.9235C80.9861 85.7556 80.6596 85.5658 80.459 85.186C80.2685 84.8252 80.2693 84.6362 80.3888 84.2599C80.7714 84.0645 80.857 84.052 81.2874 84.067L81.0752 85.0135C81.2416 85.1736 81.3402 85.2302 81.5541 85.3294C81.8488 85.4661 81.7287 85.3754 81.9335 85.6505Z" fill="#1D1D1D"/>
<path d="M250.045 171.843C250.402 172.1 250.667 172.508 250.893 172.875L250.811 173.11L250.331 172.928C249.947 173.132 249.792 173.258 249.351 173.253L249.252 172.973C249.43 172.398 249.562 172.196 250.045 171.843Z" fill="#1D1D1D"/>
<path d="M86.845 204.433C86.8783 204.453 86.9147 204.468 86.945 204.493C87.1447 204.651 87.2462 204.728 87.2897 204.987C87.3947 205.612 87.0712 206.087 86.7517 206.59C86.5386 206.306 86.3861 205.953 86.3615 205.592C86.3245 205.053 86.5443 204.835 86.845 204.433Z" fill="#1D1D1D"/>
<path d="M68.776 182.67C69.1964 182.263 69.5722 181.888 69.899 181.402C69.8736 182.069 70.0047 183.192 69.5238 183.687L69.1322 183.537L68.776 182.67Z" fill="#1D1D1D"/>
<path d="M208.771 54.415C208.917 54.1316 208.96 54.0694 209.283 53.9616C209.656 53.8378 210.105 53.8663 210.495 53.8613L210.635 53.9711C210.356 54.2025 210.065 54.4252 209.79 54.6586C209.565 54.8492 209.506 55.0205 209.409 55.2883C209.149 55.03 208.971 54.7198 208.771 54.415Z" fill="#1D1D1D"/>
<path d="M93.3163 205.94C93.4963 205.981 93.6746 206.052 93.8494 206.111C94.0672 206.608 93.8975 207.259 93.8782 207.813L93.7723 207.847L93.5044 207.628C93.2822 207.063 93.3123 206.539 93.3163 205.94Z" fill="#1D1D1D"/>
<path d="M71.6405 141.85C71.78 142.154 71.8487 142.3 71.7874 142.635C71.3846 142.828 70.9864 143.031 70.5706 143.194L70.4779 142.493C70.7684 142.01 71.2329 142.292 71.6405 141.85Z" fill="#1D1D1D"/>
<path d="M154.555 231.126L155.672 231.208C156.098 231.504 156.065 231.662 156.203 232.149L155.725 232.182C155.316 231.843 154.921 231.511 154.555 231.126Z" fill="#1D1D1D"/>
<path d="M240.496 248.247C240.6 248.309 240.533 248.261 240.672 248.436L240.798 248.597L241.421 248.643C241.756 248.464 242.025 248.34 242.398 248.248L242.531 248.358L242.265 248.773L242.316 248.894C242.684 248.651 243.025 248.417 243.446 248.27C244.406 248.598 244.886 248.522 245.839 248.219C246.113 248.131 246.291 248.097 246.587 248.129C246.709 248.352 246.755 248.428 246.963 248.589C247.879 248.553 248.769 248.434 249.678 248.307L249.958 248.666C251.753 248.728 254.334 249.162 255.781 250.316L255.533 250.497L255.846 250.793C256.046 250.629 256.095 250.603 256.36 250.533C256.628 250.719 256.888 250.912 257.141 251.117C258.948 252.572 261.55 256.5 261.74 258.76C261.884 260.456 262.615 262.899 262.525 264.473C262.508 264.79 262.108 265.295 261.929 265.566C262.361 267.312 262.039 268.445 261.46 270.096C261.582 270.482 261.677 270.842 261.745 271.24C260.89 272.305 260.522 273.364 259.912 274.556C259.048 276.248 257.383 278.357 255.716 279.272C255.69 279.284 255.663 279.295 255.637 279.306C255.049 279.574 254.451 279.86 253.824 280.027C252.962 280.26 251.582 280.348 250.82 280.79C250.659 280.885 250.421 281.238 250.286 281.391L250.045 281.386L249.706 280.758C248.453 280.631 247.563 281.498 246.133 281.177C245.653 281.069 245.209 280.993 244.717 280.959C244.491 281.145 244.313 281.275 244.037 281.382L243.605 281.046C243.4 281.125 243.219 281.215 243.022 281.32C242.208 281.758 241.171 281.063 240.293 281.102C239.555 281.134 238.823 281.436 238.086 281.416C237.309 281.394 236.886 281.009 236.362 280.479C236.276 277.644 236.233 274.827 236.324 271.989C236.355 270.968 236.512 269.949 236.535 268.934C236.553 268.072 236.029 267.179 236.091 266.366C236.134 265.807 236.728 264.976 236.7 264.521C236.683 264.241 236.459 263.767 236.375 263.481C236.04 262.335 236.362 261.492 236.643 260.381C236.485 260.142 236.276 259.874 236.23 259.585C236.083 258.672 236.218 249.581 236.521 249.143C237.283 248.043 239.174 248.474 240.335 248.276C240.389 248.267 240.443 248.256 240.496 248.247Z" fill="#090909"/>
<path d="M244.495 255.037C245.399 255.119 246.37 254.808 247.217 255.153C247.404 255.229 248.069 255.569 248.235 255.554C248.681 255.509 248.859 254.978 249.405 255.164C250.068 255.39 250.445 255.946 251.202 256.056L251.441 255.749C251.532 255.782 251.628 255.803 251.715 255.847C253.191 256.588 254.783 261.557 254.761 263.183C254.747 264.31 254.187 264.932 254.603 266.109C254.705 266.397 254.767 266.663 254.834 266.96C254.68 267.096 254.498 267.208 254.375 267.372C253.691 268.284 254.221 270.404 251.964 272.826C249.419 274.707 246.912 274.068 244.033 274.554L243.796 274.596C243.766 270.011 243.883 265.439 243.926 260.855C243.94 259.342 243.65 257.659 243.87 256.178C243.94 255.704 244.197 255.396 244.495 255.037Z" fill="#FAFAF9"/>
<path d="M110.922 248.226C111.414 248.191 111.835 248.333 112.307 248.315C113.242 248.278 114.166 248.497 115.084 248.661L115.242 248.225C118.637 248.308 122.918 248.33 126.091 249.561C128.202 250.378 130.011 252.19 130.908 254.262C132.047 256.891 132.061 260.307 130.967 262.956C130.346 264.46 128.249 267.496 126.645 267.941C126.565 267.963 126.483 267.972 126.403 267.988C126.592 270.659 132.051 278.267 131.818 280.869C131.614 281.196 131.58 281.357 131.172 281.433C130.723 281.515 125.459 281.436 124.936 281.323C124.67 281.265 124.48 281.135 124.259 280.985L124.284 280.473C122.156 276.826 120.91 272.272 118.161 269.062C117.303 269.062 116.47 269.006 115.617 268.924C115.73 270.293 115.552 271.645 115.577 273.015C115.614 275.065 115.874 277.157 115.776 279.202C115.75 279.736 115.721 280.412 115.448 280.886C115.3 281.145 114.754 281.197 114.482 281.239C113.036 281.468 109.782 281.872 108.601 280.956C108.388 279.693 108.494 278.244 108.474 276.955C108.448 275.253 108.336 273.546 108.341 271.847C108.345 270.368 108.473 268.893 108.468 267.415C108.463 266.234 108.293 265.055 108.258 263.872C108.211 262.269 108.326 260.659 108.314 259.054C108.294 256.176 108.121 253.314 108.356 250.438C108.413 249.732 108.418 248.849 108.995 248.363C109.668 248.452 110.26 248.338 110.922 248.226Z" fill="#090909"/>
<path d="M116.077 255.188C118.022 255.661 121.971 254.747 123.529 255.93C123.929 256.233 123.916 256.84 123.999 257.297C124.23 257.564 124.135 257.499 124.399 257.662C124.454 257.696 124.511 257.727 124.568 257.759C124.675 258.411 124.422 258.9 124.351 259.533C124.316 259.841 124.312 260.157 124.218 260.456C123.951 261.306 123.266 261.939 122.496 262.329C122.363 262.371 122.231 262.412 122.096 262.446C121.1 262.694 116.833 262.843 116.029 262.366C115.556 261.505 115.6 260.414 115.562 259.453C115.524 258.478 115.289 256.543 115.627 255.675C115.676 255.549 115.974 255.3 116.077 255.188Z" fill="#FAFAF9"/>
<path d="M115.786 267.425C115.799 267.371 115.8 267.312 115.824 267.262C116.022 266.849 116.575 266.146 116.983 265.967C117.31 266.453 117.466 266.58 117.472 267.179C117.292 267.508 117.244 267.677 116.847 267.778C116.435 267.881 116.112 267.628 115.786 267.425Z" fill="#1D1D1D"/>
<path d="M90.264 247.938L90.524 248.107C90.5649 248.293 90.6115 248.477 90.6655 248.658C91.6006 248.547 95.3173 247.934 96.0246 248.123C96.3703 248.216 96.897 248.59 97.2262 248.767C97.5672 248.63 97.4508 248.712 97.7186 248.466C97.7807 248.409 97.8399 248.349 97.9005 248.291C99.4599 248.296 101.532 248.073 102.992 248.612C103.377 249.014 103.638 249.403 103.764 249.955C103.997 250.975 103.751 253.686 103.231 254.577C101.853 255.495 100.905 254.613 99.9155 254.963C99.5314 255.099 99.5627 255.419 99.0722 255.401L98.655 254.887C98.4955 255.011 98.3829 255.116 98.2551 255.275C98.2153 255.325 98.1777 255.376 98.139 255.427L96.5255 254.99C95.9692 255.334 95.5922 255.62 94.9188 255.571L94.6226 255.073C94.5661 255.117 94.5114 255.165 94.4531 255.207C93.8392 255.658 93.2498 255.172 92.5743 255.059C92.374 255.266 92.1709 255.528 91.8889 255.616C91.6838 255.681 91.2481 255.339 91.0577 255.227C90.7328 255.95 90.5506 260.468 90.819 261.261L91.0891 261.236L91.3023 261.595C91.7725 261.738 92.2223 261.558 92.681 261.434C93.3002 261.267 100.257 261.222 101.057 261.317C101.465 261.365 101.81 261.57 102.051 261.902C102.819 262.959 102.658 264.833 102.415 266.062C102.323 266.525 102.162 267.37 101.734 267.657C100.583 268.426 92.4101 267.172 90.943 268.169C90.3525 269.149 90.8471 270.438 90.7991 271.52C90.781 271.927 90.5234 272.265 90.5163 272.661C90.5085 273.094 90.7186 273.684 91.0491 273.976C91.26 274.162 91.5589 274.074 91.8248 274.071C94.4735 273.955 97.1485 274.122 99.7967 274.192C100.5 274.21 101.246 274.069 101.928 274.12C102.431 274.158 103.348 274.606 103.636 275.043C103.841 275.354 103.911 275.551 103.765 275.902C103.118 277.451 103.725 278.185 103.57 279.724C103.513 280.284 103.278 280.733 102.842 281.087C102.551 281.323 102.474 281.428 102.097 281.364C99.4068 280.919 96.2947 281.247 93.553 281.304C91.8981 281.338 90.2501 281.261 88.5971 281.284C87.2068 281.306 85.7243 281.428 84.3486 281.25C84.0848 281.216 83.7904 281.228 83.6605 280.959C83.4044 280.431 83.3569 279.313 83.3267 278.716C83.2702 277.597 83.4005 276.468 83.3816 275.346L83.2644 260.547L83.1436 252.783C83.133 251.593 83.0244 250.324 83.1953 249.147C84.5615 248.096 87.7955 248.378 89.4565 248.437C89.688 248.632 89.6205 248.534 89.7516 248.808C89.7824 248.872 89.8094 248.938 89.8383 249.003L90.0125 248.923L90.264 247.938Z" fill="#090909"/>
<path d="M223.507 248.142L223.583 248.159C223.618 248.221 223.776 248.495 223.816 248.544C224.025 248.798 224.852 248.199 225.315 248.241L225.555 248.654C226.064 248.903 225.951 248.385 226.345 248.276C227.07 248.08 229.762 248.286 230.635 248.34C230.953 248.628 230.899 248.801 230.963 249.207L231.087 248.83L231.241 248.776C231.292 248.846 231.359 248.908 231.396 248.987C231.526 249.262 231.52 253.561 231.444 253.828C231.317 254.27 231.065 254.621 230.641 254.808C228.593 255.709 220.07 254.557 218.492 255.604C218.413 256.184 218.879 256.526 218.961 257.06C219.046 257.611 218.526 260.021 218.592 261.111C218.646 261.204 218.667 261.328 218.753 261.391C219.4 261.873 227.768 260.743 229.707 261.676C229.793 261.845 229.868 261.998 229.916 262.184C230.189 263.252 230.102 266.542 229.486 267.501C228.554 268.097 220.665 267.685 218.871 267.962C218.77 268.124 218.684 268.267 218.628 268.451C218.619 268.482 218.602 272.766 218.614 272.864C218.659 273.245 218.781 273.537 218.982 273.864C220.382 274.206 222.652 273.885 224.165 273.932C224.751 273.95 226.163 274.26 226.471 274.24C226.853 274.215 226.519 274.195 226.962 274.235C227.036 274.241 227.109 274.252 227.181 274.26L227.282 274.043C228.817 274.015 230.246 274.142 231.511 275.037C231.384 276.712 231.707 278.546 231.34 280.171C229.652 282.552 227.449 280.329 225.655 281.23C224.688 281.715 224.804 281.134 223.968 280.899C223.926 280.967 223.815 281.16 223.764 281.211C223.341 281.628 218.814 281.122 217.925 281.038L217.591 281.484C215.828 281.436 213.396 281.697 211.759 281.006C211.272 280.017 211.214 278.613 211.094 277.52C211.237 277.331 211.367 277.175 211.438 276.944C211.508 276.721 211.243 276.356 211.138 276.145C211.294 273.198 211.384 270.081 211.24 267.131C211.161 265.536 210.896 263.945 210.896 262.345C210.896 261.574 211.13 260.866 211.177 260.114C211.297 258.13 210.519 250.443 211.231 249.078C211.328 248.891 211.602 248.547 211.8 248.459C212.845 247.993 220.759 248.795 222.36 248.422C222.595 248.368 222.686 248.332 222.942 248.368C222.994 248.374 223.047 248.392 223.1 248.405L223.507 248.142Z" fill="#090909"/>
<path d="M67.7823 247.642L69.569 247.734L69.7049 248.182C71.9033 248.248 73.9406 249.254 75.5298 250.753C77.4234 252.536 79.3816 256.203 79.3564 258.839C79.3525 259.241 79.2367 259.685 78.8886 259.93C77.8943 260.63 76.2562 260.159 75.1343 260.244C74.5209 260.291 73.9945 260.611 73.3661 260.447C71.5693 259.976 71.5879 257.52 70.6815 256.195C70.2618 255.582 69.649 255.102 68.8931 255.016C68.5956 254.982 68.5448 255.141 68.338 255.328C67.3688 254.709 66.9035 254.816 65.8361 255.011C65.5613 255.225 65.2917 255.446 65.0278 255.673C62.1621 258.162 62.2028 260.517 61.9884 264.066C61.7853 267.428 61.8917 269.731 63.6462 272.653C63.907 273.088 64.2675 273.827 64.6575 274.149C65.3986 274.758 68.0329 274.905 68.9463 274.689C70.1298 274.409 70.6819 273.438 71.2638 272.477C71.4871 272.505 71.5978 272.508 71.8258 272.466L71.4463 271.91L71.5125 271.599C71.9052 271.197 72.1355 270.796 72.3974 270.301L73.2812 270.124C73.7016 270.037 74.0646 269.979 74.4968 269.983C74.5512 269.985 74.8582 269.991 74.9206 269.985C75.3295 269.943 75.4854 269.878 75.8959 269.997C76.111 269.985 76.2884 269.954 76.4994 269.92C77.251 269.801 78.5359 269.85 79.1321 270.397C80.6543 271.791 78.5803 273.469 78.8753 274.885C78.8954 274.983 78.9787 275.08 78.9495 275.175C78.9239 275.258 78.4285 275.398 78.3556 275.481C78.1291 275.741 77.9478 276.419 77.7681 276.754C76.5489 279.013 74.1307 280.567 71.7331 281.323L71.4466 281.413C70.7237 281.642 70.2416 281.397 69.5328 281.258L69.4921 281.699C68.9121 282.035 68.0216 281.931 67.3791 281.841C63.5479 281.307 59.8728 280.187 57.484 276.935C54.5183 272.895 53.7535 266.315 54.5279 261.459C55.2444 256.966 56.4798 252.754 60.3658 249.984C62.0839 248.758 65.0536 247.378 67.205 247.827C67.3 247.847 67.394 247.871 67.4884 247.892L67.7823 247.642Z" fill="#090909"/>
<path d="M181.462 248.595C182 248.104 182.498 247.932 183.253 247.889C184.14 247.838 184.889 248.457 185.903 248.356C187.81 248.166 192.3 247.653 193.791 248.861C194.364 249.799 194.255 252.641 193.988 253.737C193.882 254.168 193.748 254.41 193.355 254.645C191.175 255.959 182.297 254.535 181.308 255.51C181.109 256.32 181.014 261.039 181.335 261.708C182.326 261.929 186.154 261.821 187.406 261.756C188.391 261.703 189.488 261.422 190.463 261.57C191.044 261.66 191.548 261.892 191.858 262.422C192.601 263.697 192.242 266.33 192.229 267.793C189.652 269.017 186.344 268.489 183.538 268.537C182.829 268.549 182.026 268.489 181.349 268.698C180.935 270.498 181.272 280.558 181.165 280.771C181.12 280.863 181 280.889 180.916 280.943C179.116 282.115 175.56 280.784 174.534 281.4C174.183 281.26 174.062 281.164 173.904 280.81C173.688 280.324 173.649 279.733 173.619 279.206C173.537 277.736 173.305 266.443 173.562 265.686C173.619 265.517 173.732 265.342 173.832 265.195C173.793 265.146 173.751 265.099 173.712 265.05C173.607 264.917 173.454 264.751 173.429 264.573C173.215 263.013 173.545 261.137 173.55 259.549C173.558 256.151 172.881 252.642 173.438 249.245C173.475 249.023 173.554 248.852 173.672 248.663C174.542 248.147 176.008 248.033 176.983 248.242C177.212 248.291 177.375 248.386 177.559 248.525L177.741 248.287C178.114 248.209 178.444 248.189 178.825 248.191C179.645 248.192 180.874 248.006 181.462 248.595Z" fill="#090909"/>
<path d="M153.159 248.112C153.562 248.065 153.719 248.199 154.078 248.363C154.488 248.313 154.901 248.274 155.316 248.302C155.818 248.335 156.299 248.542 156.612 248.951C157.177 249.686 157.3 253.413 157.009 254.354C156.865 254.819 156.28 254.402 155.961 254.535C155.708 254.642 155.643 255.128 155.296 255.218C153.577 255.653 150.845 254.783 149.013 255.71C148.8 255.973 148.772 256.254 148.763 256.583C148.737 257.526 148.975 258.478 148.974 259.43C148.972 262.156 148.81 264.88 148.868 267.613C148.961 272.054 149.279 276.51 148.857 280.95C148 281.818 146.682 280.993 145.673 281.428C145.26 281.606 144.765 281.357 144.328 281.233C144.18 281.281 144.032 281.33 143.882 281.372C143.314 281.53 142.601 281.688 142.089 281.301C141.078 280.541 141.489 277.609 141.398 276.393C141.239 275.105 141.462 274.048 141.447 272.794C141.423 270.749 141.234 268.697 141.212 266.646C141.188 264.409 141.341 262.166 141.29 259.931C141.27 259.057 140.847 257.956 140.948 257.125C140.983 256.834 141.273 256.322 141.393 256.031C141.359 255.893 141.364 255.738 141.292 255.614C140.791 254.752 135.371 256.432 134.024 255.179C133.025 254.249 133.435 250.592 133.45 249.22C133.722 248.988 134.114 248.612 134.445 248.479C135.508 248.053 138.021 248.502 139.245 248.503C141.802 248.507 144.389 248.482 146.946 248.408C148.818 248.352 150.71 248.209 152.581 248.343C152.814 248.358 152.957 248.222 153.159 248.112Z" fill="#090909"/>
<path d="M162.213 248.218C163.082 248.091 166.071 248.121 166.95 248.316C167.289 248.392 167.834 248.554 167.993 248.892C168.338 249.618 168.45 256.064 168.152 256.688C168.08 256.843 167.86 257.118 167.843 257.279C167.786 257.871 168.143 258.982 168.202 259.618C168.046 259.778 167.854 259.934 167.843 260.183C167.826 260.576 168.299 261.194 168.312 261.708C168.381 264.443 168.151 267.204 168.131 269.938C168.121 271.077 168.364 272.187 168.273 273.328L167.857 273.629L168.227 273.826C168.51 274.431 168.292 279.72 168.197 280.736L168.002 280.779C167.739 280.818 167.838 280.79 167.611 280.867C167.14 281.027 166.683 281.163 166.193 281.249C164.784 281.494 162.088 281.835 160.87 280.966C160.656 280.406 160.594 279.825 160.56 279.229C160.268 274.069 160.563 268.76 160.548 263.585C160.535 258.857 160.176 254.057 160.539 249.34C160.571 248.907 160.627 248.802 160.963 248.532C161.308 248.477 161.614 248.416 161.964 248.483C162.031 248.495 162.094 248.517 162.158 248.534L162.213 248.218Z" fill="#090909"/>
<path d="M199.464 248.261L199.583 248.219C199.786 248.304 199.924 248.337 200.145 248.312C201.382 248.171 204.381 247.999 205.358 248.881C205.922 249.389 205.211 254.644 205.384 255.632C205.437 255.935 205.66 256.141 205.706 256.444C205.872 257.523 205.49 259.031 205.443 260.165C205.381 261.671 205.634 263.167 205.603 264.671C205.592 265.143 205.251 267.241 205.333 267.44C205.401 267.607 205.601 267.697 205.675 267.861C205.795 268.124 205.697 279.677 205.626 280.691C205.151 281.115 204.988 281.323 204.321 281.394C203.309 281.45 198.976 281.575 198.288 281.077C198.359 279.857 198.009 278.493 197.984 277.24C197.901 272.943 198.088 268.637 198.068 264.341C198.057 262.201 197.596 249.768 198.253 248.727C198.416 248.468 199.165 248.341 199.464 248.261Z" fill="#090909"/>
</g>
<defs>
<clipPath id="clip0_3345_13345">
<rect width="317" height="317" fill="white" transform="translate(0 0.353516)"/>
</clipPath>
</defs>
</svg>
